<svg width="62" height="21" viewBox="0 0 62 21" fill="none" xmlns="http://www.w3.org/2000/svg">
<path d="M47.5029 10.2759C47.5029 7.27722 48.0403 4.92855 49.1149 3.22988C50.2069 1.53122 52.0096 0.681885 54.5229 0.681885C57.0363 0.681885 58.8303 1.53122 59.9049 3.22988C60.9969 4.92855 61.5429 7.27722 61.5429 10.2759C61.5429 13.2919 60.9969 15.6579 59.9049 17.3739C58.8303 19.0899 57.0363 19.9479 54.5229 19.9479C52.0096 19.9479 50.2069 19.0899 49.1149 17.3739C48.0403 15.6579 47.5029 13.2919 47.5029 10.2759ZM57.9549 10.2759C57.9549 8.99322 57.8683 7.91855 57.6949 7.05188C57.5389 6.16788 57.2096 5.44855 56.7069 4.89388C56.2216 4.33922 55.4936 4.06188 54.5229 4.06188C53.5523 4.06188 52.8156 4.33922 52.3129 4.89388C51.8276 5.44855 51.4983 6.16788 51.3249 7.05188C51.1689 7.91855 51.0909 8.99322 51.0909 10.2759C51.0909 11.5932 51.1689 12.7026 51.3249 13.6039C51.4809 14.4879 51.8103 15.2072 52.3129 15.7619C52.8156 16.2992 53.5523 16.5679 54.5229 16.5679C55.4936 16.5679 56.2303 16.2992 56.7329 15.7619C57.2356 15.2072 57.5649 14.4879 57.7209 13.6039C57.8769 12.7026 57.9549 11.5932 57.9549 10.2759Z" fill="white"/>
<path d="M31.9905 6.03801C32.0771 4.30467 32.6838 2.97 33.8105 2.034C34.9545 1.08067 36.4538 0.604004 38.3085 0.604004C39.5738 0.604004 40.6571 0.829337 41.5585 1.28C42.4598 1.71334 43.1358 2.31134 43.5865 3.074C44.0545 3.81934 44.2885 4.66867 44.2885 5.622C44.2885 6.714 44.0025 7.64134 43.4305 8.404C42.8758 9.14934 42.2085 9.652 41.4285 9.912V10.016C42.4338 10.328 43.2138 10.8827 43.7685 11.68C44.3405 12.4773 44.6265 13.5 44.6265 14.748C44.6265 15.788 44.3838 16.7153 43.8985 17.53C43.4305 18.3447 42.7285 18.986 41.7925 19.454C40.8738 19.9047 39.7645 20.13 38.4645 20.13C36.5058 20.13 34.9111 19.636 33.6805 18.648C32.4498 17.66 31.7998 16.204 31.7305 14.28H35.2665C35.3011 15.1293 35.5871 15.814 36.1245 16.334C36.6791 16.8367 37.4331 17.088 38.3865 17.088C39.2705 17.088 39.9465 16.8453 40.4145 16.36C40.8998 15.8573 41.1425 15.216 41.1425 14.436C41.1425 13.396 40.8131 12.6507 40.1545 12.2C39.4958 11.7493 38.4731 11.524 37.0865 11.524H36.3325V8.534H37.0865C39.5478 8.534 40.7785 7.71067 40.7785 6.064C40.7785 5.31867 40.5531 4.738 40.1025 4.322C39.6691 3.906 39.0365 3.698 38.2045 3.698C37.3898 3.698 36.7571 3.92334 36.3065 4.374C35.8731 4.80734 35.6218 5.362 35.5525 6.03801H31.9905Z" fill="white"/>
<path d="M25.1356 5.778C24.9623 5.05 24.659 4.504 24.2256 4.14C23.8096 3.776 23.203 3.594 22.4056 3.594C21.2096 3.594 20.3256 4.07934 19.7536 5.05C19.199 6.00334 18.913 7.56334 18.8956 9.73001C19.3116 9.03667 19.9183 8.49934 20.7156 8.11801C21.513 7.71934 22.3796 7.52 23.3156 7.52C24.4423 7.52 25.439 7.76267 26.3056 8.248C27.1723 8.73334 27.8483 9.444 28.3336 10.38C28.819 11.2987 29.0616 12.408 29.0616 13.708C29.0616 14.9387 28.8103 16.0393 28.3076 17.01C27.8223 17.9633 27.103 18.7087 26.1496 19.246C25.1963 19.7833 24.061 20.052 22.7436 20.052C20.941 20.052 19.5196 19.6533 18.4796 18.856C17.457 18.0587 16.7376 16.9493 16.3216 15.528C15.923 14.0893 15.7236 12.3213 15.7236 10.224C15.7236 7.052 16.2696 4.66 17.3616 3.048C18.4536 1.41867 20.1783 0.604004 22.5356 0.604004C24.3556 0.604004 25.7683 1.098 26.7736 2.086C27.779 3.074 28.3596 4.30467 28.5156 5.778H25.1356ZM22.4836 10.51C21.565 10.51 20.7936 10.7787 20.1696 11.316C19.5456 11.8533 19.2336 12.6333 19.2336 13.656C19.2336 14.6787 19.5196 15.4847 20.0916 16.074C20.681 16.6633 21.5043 16.958 22.5616 16.958C23.4976 16.958 24.2343 16.672 24.7716 16.1C25.3263 15.528 25.6036 14.7567 25.6036 13.786C25.6036 12.7807 25.335 11.9833 24.7976 11.394C24.2776 10.8047 23.5063 10.51 22.4836 10.51Z" fill="white"/>
<path d="M1.52155 15.8919C3.18555 14.5052 4.51155 13.3526 5.49955 12.4339C6.48756 11.4979 7.31089 10.5272 7.96956 9.52188C8.62822 8.51655 8.95755 7.52855 8.95755 6.55788C8.95755 5.67388 8.74955 4.98055 8.33356 4.47788C7.91755 3.97522 7.27622 3.72388 6.40956 3.72388C5.54289 3.72388 4.87556 4.01855 4.40755 4.60788C3.93955 5.17988 3.69689 5.96855 3.67955 6.97388H0.143555C0.212888 4.89388 0.828221 3.31655 1.98955 2.24188C3.16822 1.16722 4.65889 0.629883 6.46155 0.629883C8.43756 0.629883 9.95422 1.15855 11.0116 2.21588C12.0689 3.25588 12.5976 4.63388 12.5976 6.34988C12.5976 7.70188 12.2336 8.99322 11.5056 10.2239C10.7776 11.4546 9.94555 12.5292 9.00955 13.4479C8.07355 14.3492 6.85156 15.4412 5.34355 16.7239H13.0136V19.7399H0.169555V17.0359L1.52155 15.8919Z" fill="white"/>
</svg>
