<svg width="18" height="18" viewBox="0 0 18 18" fill="none" xmlns="http://www.w3.org/2000/svg">
<mask id="mask0_134_4048" style="mask-type:alpha" maskUnits="userSpaceOnUse" x="0" y="0" width="18" height="18">
<path d="M0 0H18V18H0V0Z" fill="#D9D9D9"/>
</mask>
<g mask="url(#mask0_134_4048)">
<path fill-rule="evenodd" clip-rule="evenodd" d="M6.075 15.9094C6.9875 16.3031 7.9625 16.5 9 16.5C10.0375 16.5 11.0125 16.3031 11.925 15.9094C12.8375 15.5156 13.6313 14.9813 14.3063 14.3063C14.9813 13.6313 15.5156 12.8375 15.9094 11.925C16.3031 11.0125 16.5 10.0375 16.5 9C16.5 7.9625 16.3031 6.9875 15.9094 6.075C15.5156 5.1625 14.9813 4.36875 14.3063 3.69375C13.6313 3.01875 12.8375 2.48438 11.925 2.09063C11.0125 1.69688 10.0375 1.5 9 1.5C7.9625 1.5 6.9875 1.69688 6.075 2.09063C5.1625 2.48438 4.36875 3.01875 3.69375 3.69375C3.01875 4.36875 2.48438 5.1625 2.09063 6.075C1.69688 6.9875 1.5 7.9625 1.5 9C1.5 10.0375 1.69688 11.0125 2.09063 11.925C2.48438 12.8375 3.01875 13.6313 3.69375 14.3063C4.36875 14.9813 5.1625 15.5156 6.075 15.9094ZM13.2563 13.2563C12.0938 14.4188 10.675 15 9 15C7.325 15 5.90625 14.4188 4.74375 13.2563C3.58125 12.0938 3 10.675 3 9C3 7.325 3.58125 5.90625 4.74375 4.74375C5.90625 3.58125 7.325 3 9 3C10.675 3 12.0938 3.58125 13.2563 4.74375C14.4188 5.90625 15 7.325 15 9C15 10.675 14.4188 12.0938 13.2563 13.2563Z" fill="#C4CACD" fill-opacity="0.8"/>
<path fill-rule="evenodd" clip-rule="evenodd" d="M9 15C10.675 15 12.0938 14.4188 13.2563 13.2563C14.4188 12.0938 15 10.675 15 9C15 7.325 14.4188 5.90625 13.2563 4.74375C12.0938 3.58125 10.675 3 9 3C7.325 3 5.90625 3.58125 4.74375 4.74375C3.58125 5.90625 3 7.325 3 9C3 10.675 3.58125 12.0938 4.74375 13.2563C5.90625 14.4188 7.325 15 9 15ZM9.75 12.75H8.25V9.75H5.25V8.25H8.25V5.25H9.75V8.25H12.75V9.75H9.75V12.75Z" fill="#C4CACD" fill-opacity="0.8"/>
</g>
</svg>
