<svg width="15" height="15" viewBox="0 0 15 15" fill="none" xmlns="http://www.w3.org/2000/svg">
<path d="M15 7.49991C15 9.48903 14.2098 11.3967 12.8033 12.8032C11.3968 14.2097 9.48912 14.9999 7.5 14.9999C5.51088 14.9999 3.60322 14.2097 2.1967 12.8032C0.790177 11.3967 3.00349e-07 9.48903 0 7.49991H1.24568C1.24568 9.15866 1.90462 10.7495 3.07753 11.9224C4.25044 13.0953 5.84125 13.7542 7.5 13.7542C9.15875 13.7542 10.7496 13.0953 11.9225 11.9224C13.0954 10.7495 13.7543 9.15866 13.7543 7.49991H15Z" fill="#C4CACD" fill-opacity="0.8"/>
<path d="M7.86188 0.0085746C9.84868 0.104553 11.716 0.985856 13.053 2.45861C14.39 3.93136 15.0872 5.87492 14.9913 7.86172L13.747 7.80162C13.8271 6.1448 13.2457 4.52405 12.1307 3.29591C11.0157 2.06777 9.45859 1.33284 7.80177 1.25281L7.86188 0.0085746Z" fill="white" fill-opacity="0.8"/>
<path d="M0 7.49991C9.99017e-08 6.35717 0.261564 5.22953 0.763882 4.20311C1.2662 3.1767 1.99642 2.27863 2.89879 1.5775L3.66309 2.56116C2.91059 3.14584 2.30165 3.89474 1.88276 4.75068C1.46388 5.60662 1.24568 6.54697 1.24568 7.49991H0Z" fill="white" fill-opacity="0.8"/>
<path d="M2.89879 1.5775C4.38389 0.423648 6.24789 -0.130143 8.12207 0.0258644L8.01874 1.26725C6.45584 1.13716 4.90152 1.59895 3.66309 2.56116L2.89879 1.5775Z" fill="#C4CACD" fill-opacity="0.8"/>
</svg>
